<svg width="18" height="18" viewBox="0 0 18 18" fill="none" xmlns="http://www.w3.org/2000/svg">
<g clip-path="url(#clip0_15_32)">
<path d="M18 12.75C18 12.75 15.8407 13.7018 12.75 13.9493C13.425 15.3015 13.5 16.5 13.5 16.5C13.5 16.5 11.358 16.3612 9.75 15.0195V10.5H8.25V14.9993C6.6435 16.359 4.5 16.5 4.5 16.5C4.5 16.5 4.53375 15.2445 5.25 13.854C2.1315 13.62 0 12.75 0 12.75C0 12.75 1.66725 11.469 3.882 10.971C1.18275 8.634 0 5.25 0 5.25C0 5.25 3.28575 5.4585 6.576 7.11675C7.2135 3.25575 9 0 9 0C9 0 10.8255 3.33075 11.4427 7.24875C14.7128 5.53425 18 5.25 18 5.25C18 5.25 16.7565 8.6865 14.0347 11.0595C16.2773 11.5538 18 12.75 18 12.75ZM8.25 14.9993V18H9.75V15L8.25 14.9993Z" fill="#4CFA72" fill-opacity="0.6"/>
</g>
<defs>
<clipPath id="clip0_15_32">
<rect width="18" height="18" fill="white"/>
</clipPath>
</defs>
</svg>
